<?xml version="1.0" encoding="UTF-8"?>
<svg id="Layer_1" data-name="Layer 1" xmlns="http://www.w3.org/2000/svg" viewBox="0 0 1015 1015">
  <defs>
    <style>
      .cls-1 {
        fill: none;
        stroke: #000;
        stroke-miterlimit: 10;
      }
    </style>
  </defs>
  <g>
    <path d="m682.5,35h35c9.66,0,17.5-7.84,17.5-17.5S727.16,0,717.5,0h-35c-9.67,0-17.5,7.84-17.5,17.5s7.83,17.5,17.5,17.5Z"/>
    <path d="m297.5,70c9.66,0,17.5-7.84,17.5-17.5V17.5C315,7.84,307.16,0,297.5,0s-17.5,7.84-17.5,17.5v35c0,9.66,7.84,17.5,17.5,17.5Z"/>
    <path d="m560,70v17.5c0,9.66,7.84,17.5,17.5,17.5s17.5-7.84,17.5-17.5v-35c0-9.66-7.84-17.5-17.5-17.5s-17.5,7.84-17.5,17.5v17.5Z"/>
    <circle cx="332.5" cy="87.5" r="17.5"/>
    <path d="m402.5,105c9.66,0,17.5-7.84,17.5-17.5v-17.5h35c19.33,0,35-15.67,35-35h52.5c9.66,0,17.5-7.84,17.5-17.5S552.16,0,542.5,0h-52.5C470.67,0,455,15.67,455,35h-35c-19.33,0-35,15.67-35,35v17.5c0,9.66,7.84,17.5,17.5,17.5Z"/>
    <circle cx="647.5" cy="87.5" r="17.5"/>
    <circle cx="297.5" cy="122.5" r="17.5"/>
    <path d="m350,140v35h-17.5c-9.67,0-17.5,7.84-17.5,17.5s7.83,17.5,17.5,17.5h17.5v52.5c0,9.66,7.84,17.5,17.5,17.5s17.5-7.84,17.5-17.5v-87.5h52.5c9.66,0,17.5-7.84,17.5-17.5s-7.84-17.5-17.5-17.5h-52.5v-17.5c0-9.66-7.84-17.5-17.5-17.5s-17.5,7.84-17.5,17.5v17.5Z"/>
    <circle cx="612.5" cy="122.5" r="17.5"/>
    <path d="m717.5,140c9.66,0,17.5-7.84,17.5-17.5v-35c0-9.66-7.84-17.5-17.5-17.5s-17.5,7.84-17.5,17.5v35c0,9.66,7.84,17.5,17.5,17.5Z"/>
    <path d="m507.5,175c9.66,0,17.5-7.84,17.5-17.5v-17.5h17.5c9.66,0,17.5-7.84,17.5-17.5s-7.84-17.5-17.5-17.5h-17.5c-19.33,0-35,15.67-35,35v17.5c0,9.66,7.84,17.5,17.5,17.5Z"/>
    <circle cx="472.5" cy="192.5" r="17.5"/>
    <path d="m700,192.5v-35c0-9.66-7.84-17.5-17.5-17.5s-17.5,7.84-17.5,17.5v35c0,9.66,7.84,17.5,17.5,17.5s17.5-7.84,17.5-17.5Z"/>
    <circle cx="437.5" cy="227.5" r="17.5"/>
    <circle cx="507.5" cy="227.5" r="17.5"/>
    <circle cx="647.5" cy="227.5" r="17.5"/>
    <path d="m297.5,280c9.66,0,17.5-7.84,17.5-17.5v-35c0-9.66-7.84-17.5-17.5-17.5s-17.5,7.84-17.5,17.5v35c0,9.66,7.84,17.5,17.5,17.5Z"/>
    <circle cx="892.5" cy="297.5" r="17.5"/>
    <path d="m980,280h-17.5c-9.67,0-17.5,7.84-17.5,17.5s7.83,17.5,17.5,17.5h17.5v17.5h0c0,9.66,7.84,17.5,17.5,17.5s17.5-7.84,17.5-17.5v-17.5c0-19.33-15.67-35-35-35Z"/>
    <path d="m700,315c19.33,0,35-15.67,35-35v-52.5c0-9.66-7.84-17.5-17.5-17.5s-17.5,7.84-17.5,17.5v17.5c-19.33,0-35,15.67-35,35h-35c0-19.33-15.67-35-35-35v-35h17.5c9.66,0,17.5-7.84,17.5-17.5s-7.84-17.5-17.5-17.5h-17.5v-17.5c0-9.66-7.84-17.5-17.5-17.5s-17.5,7.84-17.5,17.5v17.5h-17.5c-9.67,0-17.5,7.84-17.5,17.5s7.83,17.5,17.5,17.5h17.5v35c-19.33,0-35,15.67-35,35v35h-35c0-19.33-15.67-35-35-35h-35c-19.33,0-35,15.67-35,35h-17.5c-9.67,0-17.5,7.84-17.5,17.5s7.83,17.5,17.5,17.5h87.5v17.5c0,9.66,7.84,17.5,17.5,17.5s17.5-7.84,17.5-17.5v-17.5h35c19.33,0,35-15.67,35-35v-35h35v35c0,19.33,15.67,35,35,35h35c19.33,0,35-15.67,35-35Z"/>
    <path d="m805,350h52.5c9.66,0,17.5-7.84,17.5-17.5s-7.84-17.5-17.5-17.5h-52.5v-17.5c0-9.66-7.84-17.5-17.5-17.5s-17.5,7.84-17.5,17.5v17.5c0,19.33,15.67,35,35,35Z"/>
    <circle cx="332.5" cy="367.5" r="17.5"/>
    <path d="m577.5,420c9.66,0,17.5-7.84,17.5-17.5v-35c0-9.66-7.84-17.5-17.5-17.5s-17.5,7.84-17.5,17.5v35c0,9.66,7.84,17.5,17.5,17.5Z"/>
    <path d="m735,385h-17.5c-9.67,0-17.5,7.84-17.5,17.5s7.83,17.5,17.5,17.5h70c9.66,0,17.5-7.84,17.5-17.5s-7.84-17.5-17.5-17.5h-17.5v-17.5c0-9.66-7.84-17.5-17.5-17.5s-17.5,7.84-17.5,17.5v17.5Z"/>
    <path d="m927.5,385h35c9.66,0,17.5-7.84,17.5-17.5s-7.84-17.5-17.5-17.5h-35c-9.67,0-17.5,7.84-17.5,17.5s7.83,17.5,17.5,17.5Z"/>
    <path d="m420,385h-17.5c-9.67,0-17.5,7.84-17.5,17.5s7.83,17.5,17.5,17.5h35c9.66,0,17.5-7.84,17.5-17.5s-7.84-17.5-17.5-17.5h-17.5Z"/>
    <circle cx="647.5" cy="402.5" r="17.5"/>
    <circle cx="857.5" cy="402.5" r="17.5"/>
    <circle cx="997.5" cy="402.5" r="17.5" transform="translate(-47.06 659.22) rotate(-35.78)"/>
    <circle cx="367.5" cy="437.5" r="17.5"/>
    <path d="m507.5,490c9.66,0,17.5-7.84,17.5-17.5v-17.5h17.5c9.66,0,17.5-7.84,17.5-17.5s-7.84-17.5-17.5-17.5h-17.5c-19.33,0-35,15.67-35,35v17.5c0,9.66,7.84,17.5,17.5,17.5Z"/>
    <circle cx="612.5" cy="437.5" r="17.5"/>
    <circle cx="822.5" cy="437.5" r="17.5"/>
    <path d="m1015,490c0-19.33-15.67-35-35-35h-35c0-19.33-15.67-35-35-35h-17.5c-9.67,0-17.5,7.84-17.5,17.5s7.83,17.5,17.5,17.5h17.5v35c0,19.33,15.67,35,35,35v70h-35c0-19.33-15.67-35-35-35h-35c0-19.33-15.67-35-35-35v-35c0-19.33-15.67-35-35-35h-70v-17.5c0-9.66-7.84-17.5-17.5-17.5s-17.5,7.84-17.5,17.5v17.5h-17.5c-9.67,0-17.5,7.84-17.5,17.5s7.83,17.5,17.5,17.5h17.5c0,19.33,15.67,35,35,35v35h-52.5c-9.67,0-17.5,7.84-17.5,17.5s7.83,17.5,17.5,17.5h52.5v52.5c0,9.66,7.84,17.5,17.5,17.5s17.5-7.84,17.5-17.5v-52.5c19.33,0,35-15.67,35-35h35v70h-17.5c-9.67,0-17.5,7.84-17.5,17.5s7.83,17.5,17.5,17.5h17.5v35h-70c-19.33,0-35,15.67-35,35v35h-17.5c-9.67,0-17.5,7.84-17.5,17.5s7.83,17.5,17.5,17.5h17.5v35c0,19.33,15.67,35,35,35h70v52.5c0,9.66,7.84,17.5,17.5,17.5s17.5-7.84,17.5-17.5v-17.5h52.5c9.66,0,17.5-7.84,17.5-17.5s-7.84-17.5-17.5-17.5h-17.5v-35c19.33,0,35-15.67,35-35v-35h35v17.5c0,9.66,7.84,17.5,17.5,17.5s17.5-7.84,17.5-17.5v-17.5h17.5c9.66,0,17.5-7.84,17.5-17.5s-7.84-17.5-17.5-17.5h-52.5v-105c19.33,0,35-15.67,35-35v-105h0v35c19.33,0,35-15.67,35-35Zm-245,35h-35v-35h35v35Zm70,70h35c0,19.33,15.67,35,35,35v70h-35v-35c0-19.33-15.67-35-35-35v-35Zm-35,245h-70v-105h105v105h-35Z"/>
    <circle cx="87.5" cy="507.5" r="17.5"/>
    <circle cx="857.5" cy="507.5" r="17.5"/>
    <circle cx="17.5" cy="542.5" r="17.5"/>
    <circle cx="52.5" cy="612.5" r="17.5"/>
    <circle cx="17.5" cy="647.5" r="17.5"/>
    <path d="m227.5,665c9.66,0,17.5-7.84,17.5-17.5s-7.84-17.5-17.5-17.5h-52.5v-35h70c0,19.33,15.67,35,35,35,0,19.33,15.67,35,35,35h17.5c9.66,0,17.5-7.84,17.5-17.5s-7.84-17.5-17.5-17.5h-17.5v-35h70c19.33,0,35-15.67,35-35,19.33,0,35-15.67,35-35h17.5c9.66,0,17.5-7.84,17.5-17.5s-7.84-17.5-17.5-17.5h-52.5v-17.5c0-9.66-7.84-17.5-17.5-17.5s-17.5,7.84-17.5,17.5v17.5h-17.5c-9.67,0-17.5,7.84-17.5,17.5s7.83,17.5,17.5,17.5h17.5v35h-70v-70h17.5c9.66,0,17.5-7.84,17.5-17.5s-7.84-17.5-17.5-17.5h-17.5c0-19.33-15.67-35-35-35h-70v-35h35c19.33,0,35-15.67,35-35v-35c0-19.33-15.67-35-35-35h-52.5c-9.67,0-17.5,7.84-17.5,17.5s7.83,17.5,17.5,17.5h52.5v35h-35c-19.33,0-35,15.67-35,35v35h-35v-70h17.5c9.66,0,17.5-7.84,17.5-17.5s-7.84-17.5-17.5-17.5h-17.5c0-19.33-15.67-35-35-35h-17.5c-9.67,0-17.5,7.84-17.5,17.5s7.83,17.5,17.5,17.5h17.5v35h-35c0-19.33-15.67-35-35-35v-17.5c0-9.66-7.84-17.5-17.5-17.5s-17.5,7.84-17.5,17.5v52.5c0,19.33,15.67,35,35,35h35v35h-17.5c-9.67,0-17.5,7.84-17.5,17.5s7.83,17.5,17.5,17.5h52.5v17.5c0,9.66,7.84,17.5,17.5,17.5s17.5-7.84,17.5-17.5v-17.5h35v17.5c0,9.66,7.84,17.5,17.5,17.5s17.5-7.84,17.5-17.5v-17.5h35v35h-17.5c-9.67,0-17.5,7.84-17.5,17.5s7.83,17.5,17.5,17.5h17.5v35h-35c0-19.33-15.67-35-35-35s-35,15.67-35,35h-52.5c-9.67,0-17.5,7.84-17.5,17.5s7.83,17.5,17.5,17.5h17.5v70c-19.33,0-35,15.67-35,35h-17.5c-9.67,0-17.5,7.84-17.5,17.5s7.83,17.5,17.5,17.5h17.5c19.33,0,35-15.67,35-35h35c19.33,0,35-15.67,35-35h52.5Z"/>
    <path d="m612.5,595h-17.5v-122.5c0-9.66-7.84-17.5-17.5-17.5s-17.5,7.84-17.5,17.5v17.5h-17.5c-9.67,0-17.5,7.84-17.5,17.5s7.83,17.5,17.5,17.5h17.5v35h-35v-17.5c0-9.66-7.84-17.5-17.5-17.5s-17.5,7.84-17.5,17.5v87.5h-87.5c-9.67,0-17.5,7.84-17.5,17.5s7.83,17.5,17.5,17.5h17.5c0,19.33,15.67,35,35,35,0,19.33,15.67,35,35,35s35-15.67,35-35v-35h35c19.33,0,35-15.67,35-35h17.5c9.66,0,17.5-7.84,17.5-17.5s-7.84-17.5-17.5-17.5Zm-52.5,35h-35v-35h35v35Z"/>
    <circle cx="262.5" cy="682.5" r="17.5"/>
    <path d="m682.5,700c9.66,0,17.5-7.84,17.5-17.5s-7.84-17.5-17.5-17.5h-52.5c-19.33,0-35,15.67-35,35-19.33,0-35,15.67-35,35-19.33,0-35,15.67-35,35-19.33,0-35,15.67-35,35h-35c-19.33,0-35,15.67-35,35v17.5c0,9.66,7.84,17.5,17.5,17.5s17.5-7.84,17.5-17.5v-17.5h70c19.33,0,35-15.67,35-35v-35h35v17.5c0,9.66,7.84,17.5,17.5,17.5s17.5-7.84,17.5-17.5v-52.5c19.33,0,35-15.67,35-35h17.5Z"/>
    <circle cx="227.5" cy="717.5" r="17.5"/>
    <circle cx="787.5" cy="787.5" r="17.5"/>
    <path d="m630,822.5v35c0,9.66,7.84,17.5,17.5,17.5s17.5-7.84,17.5-17.5v-35c0-9.66-7.84-17.5-17.5-17.5s-17.5,7.84-17.5,17.5Z"/>
    <path d="m997.5,805c-9.66,0-17.5,7.84-17.5,17.5v17.5h0v17.5h0c0,9.66,7.84,17.5,17.5,17.5s17.5-7.84,17.5-17.5v-35c0-9.66-7.84-17.5-17.5-17.5Z"/>
    <circle cx="577.5" cy="857.5" r="17.5"/>
    <circle cx="927.5" cy="857.5" r="17.5"/>
    <circle cx="962.5" cy="892.5" r="17.5"/>
    <path d="m507.5,910h-17.5v-17.5c0-9.66-7.84-17.5-17.5-17.5s-17.5,7.84-17.5,17.5v17.5c-19.33,0-35,15.67-35,35v35h-17.5c-9.67,0-17.5,7.84-17.5,17.5s7.83,17.5,17.5,17.5h70c9.66,0,17.5-7.84,17.5-17.5s-7.84-17.5-17.5-17.5h-17.5v-35h52.5c9.66,0,17.5-7.84,17.5-17.5s-7.84-17.5-17.5-17.5Z"/>
    <circle cx="927.5" cy="927.5" r="17.5"/>
    <circle cx="997.5" cy="927.5" r="17.5" transform="translate(-354.03 758.32) rotate(-35.78)"/>
    <path d="m385,945v-175h52.5c9.66,0,17.5-7.84,17.5-17.5s-7.84-17.5-17.5-17.5h-52.5c0-19.33-15.67-35-35-35s-35,15.67-35,35c-19.33,0-35,15.67-35,35v35c0,19.33,15.67,35,35,35,0,19.33,15.67,35,35,35v35h-35v-17.5c0-9.66-7.84-17.5-17.5-17.5s-17.5,7.84-17.5,17.5v17.5c0,19.33,15.67,35,35,35h35v17.5c0,9.66,7.84,17.5,17.5,17.5s17.5-7.84,17.5-17.5v-17.5Z"/>
    <circle cx="542.5" cy="962.5" r="17.5"/>
    <path d="m717.5,945c-9.66,0-17.5,7.84-17.5,17.5v17.5h-35v-35c19.33,0,35-15.67,35-35v-17.5c0-9.66-7.84-17.5-17.5-17.5s-17.5,7.84-17.5,17.5v17.5h-35c-19.33,0-35,15.67-35,35v35c0,19.33,15.67,35,35,35h70c19.33,0,35-15.67,35-35v-17.5c0-9.66-7.84-17.5-17.5-17.5Z"/>
    <path d="m787.5,945c-9.66,0-17.5,7.84-17.5,17.5v35c0,9.66,7.84,17.5,17.5,17.5s17.5-7.84,17.5-17.5v-35c0-9.66-7.84-17.5-17.5-17.5Z"/>
    <path d="m875,945h-17.5c-9.67,0-17.5,7.84-17.5,17.5s7.83,17.5,17.5,17.5h17.5v17.5c0,9.66,7.84,17.5,17.5,17.5s17.5-7.84,17.5-17.5v-17.5c0-19.33-15.67-35-35-35Z"/>
    <path d="m962.5,945c-9.66,0-17.5,7.84-17.5,17.5v35c0,9.66,7.84,17.5,17.5,17.5s17.5-7.84,17.5-17.5v-35c0-9.66-7.84-17.5-17.5-17.5Z"/>
    <path d="m332.5,980h-35c-9.67,0-17.5,7.84-17.5,17.5s7.83,17.5,17.5,17.5h35c9.66,0,17.5-7.84,17.5-17.5s-7.84-17.5-17.5-17.5Z"/>
  </g>
  <g>
    <rect class="cls-1" x="36.75" y="36.75" width="171.5" height="171.5"/>
    <path d="m208.25,0H0v245h245V0h-36.75Zm0,208.25H36.75V36.75h171.5v171.5Z"/>
  </g>
  <g>
    <rect class="cls-1" x="806.75" y="36.75" width="171.5" height="171.5"/>
    <path d="m978.25,0h-208.25v245h245V0h-36.75Zm0,208.25h-171.5V36.75h171.5v171.5Z"/>
  </g>
  <g>
    <rect class="cls-1" x="36.75" y="806.75" width="171.5" height="171.5"/>
    <path d="m208.25,770H0v245h245v-245h-36.75Zm0,208.25H36.75v-171.5h171.5v171.5Z"/>
  </g>
  <rect x="70" y="70" width="105" height="105"/>
  <rect x="840" y="70" width="105" height="105"/>
  <rect x="70" y="840" width="105" height="105"/>
</svg>