<?xml version="1.0" encoding="utf-8"?>
<!-- Generator: Adobe Illustrator 27.2.0, SVG Export Plug-In . SVG Version: 6.00 Build 0)  -->
<svg version="1.1" id="Layer_1" xmlns="http://www.w3.org/2000/svg" xmlns:xlink="http://www.w3.org/1999/xlink" x="0px" y="0px"
	 viewBox="0 0 1042.8 1045.6" style="enable-background:new 0 0 1042.8 1045.6;" xml:space="preserve">
<style type="text/css">
	.st0{fill:#FFFFFF;}
	.st1{fill:none;}
</style>
<g>
	<path class="st0" d="M697.8,52.5h17.5h17.5c9.7,0,17.5-7.8,17.5-17.5c0-9.7-7.8-17.5-17.5-17.5h-17.5h-17.5
		c-9.7,0-17.5,7.8-17.5,17.5C680.3,44.7,688.1,52.5,697.8,52.5z"/>
	<path class="st0" d="M312.8,87.5c9.7,0,17.5-7.8,17.5-17.5V52.5V35c0-9.7-7.8-17.5-17.5-17.5c-9.7,0-17.5,7.8-17.5,17.5v17.5V70
		C295.3,79.7,303.2,87.5,312.8,87.5z"/>
	<path class="st0" d="M575.3,87.5V105c0,9.7,7.8,17.5,17.5,17.5s17.5-7.8,17.5-17.5V87.5V70c0-9.7-7.8-17.5-17.5-17.5
		s-17.5,7.8-17.5,17.5V87.5z"/>
	<circle class="st0" cx="347.8" cy="105" r="17.5"/>
	<path class="st0" d="M417.8,122.5c9.7,0,17.5-7.8,17.5-17.5V87.5h35c19.3,0,35-15.7,35-35h35h17.5c9.7,0,17.5-7.8,17.5-17.5
		c0-9.7-7.8-17.5-17.5-17.5h-17.5h-35c-19.3,0-35,15.7-35,35h-35c-19.3,0-35,15.7-35,35V105C400.3,114.7,408.2,122.5,417.8,122.5z"
		/>
	<circle class="st0" cx="662.8" cy="105" r="17.5"/>
	<circle class="st0" cx="312.8" cy="140" r="17.5"/>
	<path class="st0" d="M365.3,157.5v35h-17.5c-9.7,0-17.5,7.8-17.5,17.5c0,9.7,7.8,17.5,17.5,17.5h17.5v35V280
		c0,9.7,7.8,17.5,17.5,17.5c9.7,0,17.5-7.8,17.5-17.5v-17.5v-35v-35h35h17.5c9.7,0,17.5-7.8,17.5-17.5c0-9.7-7.8-17.5-17.5-17.5
		h-17.5h-35V140c0-9.7-7.8-17.5-17.5-17.5c-9.7,0-17.5,7.8-17.5,17.5V157.5z"/>
	<circle class="st0" cx="627.8" cy="140" r="17.5"/>
	<path class="st0" d="M732.8,157.5c9.7,0,17.5-7.8,17.5-17.5v-17.5V105c0-9.7-7.8-17.5-17.5-17.5s-17.5,7.8-17.5,17.5v17.5V140
		C715.3,149.7,723.2,157.5,732.8,157.5z"/>
	<path class="st0" d="M522.8,192.5c9.7,0,17.5-7.8,17.5-17.5v-17.5h17.5c9.7,0,17.5-7.8,17.5-17.5c0-9.7-7.8-17.5-17.5-17.5h-17.5
		c-19.3,0-35,15.7-35,35V175C505.3,184.7,513.2,192.5,522.8,192.5z"/>
	<circle class="st0" cx="487.8" cy="210" r="17.5"/>
	<path class="st0" d="M715.3,210v-17.5V175c0-9.7-7.8-17.5-17.5-17.5s-17.5,7.8-17.5,17.5v17.5V210c0,9.7,7.8,17.5,17.5,17.5
		S715.3,219.7,715.3,210z"/>
	<circle class="st0" cx="452.8" cy="245" r="17.5"/>
	<circle class="st0" cx="522.8" cy="245" r="17.5"/>
	<circle class="st0" cx="662.8" cy="245" r="17.5"/>
	<path class="st0" d="M312.8,297.5c9.7,0,17.5-7.8,17.5-17.5v-17.5V245c0-9.7-7.8-17.5-17.5-17.5c-9.7,0-17.5,7.8-17.5,17.5v17.5
		V280C295.3,289.7,303.2,297.5,312.8,297.5z"/>
	<circle class="st0" cx="907.8" cy="315" r="17.5"/>
	<path class="st0" d="M995.3,297.5L995.3,297.5h-17.5c-9.7,0-17.5,7.8-17.5,17.5c0,9.7,7.8,17.5,17.5,17.5h17.5V350h0
		c0,9.7,7.8,17.5,17.5,17.5s17.5-7.8,17.5-17.5v-17.5C1030.3,313.2,1014.6,297.5,995.3,297.5z"/>
	<path class="st0" d="M715.3,332.5c19.3,0,35-15.7,35-35v-35V245c0-9.7-7.8-17.5-17.5-17.5s-17.5,7.8-17.5,17.5v17.5
		c-19.3,0-35,15.7-35,35h-35c0-19.3-15.7-35-35-35v-35h17.5c9.7,0,17.5-7.8,17.5-17.5c0-9.7-7.8-17.5-17.5-17.5h-17.5V175
		c0-9.7-7.8-17.5-17.5-17.5s-17.5,7.8-17.5,17.5v17.5h-17.5c-9.7,0-17.5,7.8-17.5,17.5c0,9.7,7.8,17.5,17.5,17.5h17.5v35
		c-19.3,0-35,15.7-35,35v35h-35c0-19.3-15.7-35-35-35h-35c-19.3,0-35,15.7-35,35h-17.5c-9.7,0-17.5,7.8-17.5,17.5
		c0,9.7,7.8,17.5,17.5,17.5h17.5h35h35V385c0,9.7,7.8,17.5,17.5,17.5c9.7,0,17.5-7.8,17.5-17.5v-17.5h35c19.3,0,35-15.7,35-35v-35
		h35v35c0,19.3,15.7,35,35,35h35C699.6,367.5,715.3,351.8,715.3,332.5z"/>
	<path class="st0" d="M820.3,367.5h35h17.5c9.7,0,17.5-7.8,17.5-17.5c0-9.7-7.8-17.5-17.5-17.5h-17.5h-35V315
		c0-9.7-7.8-17.5-17.5-17.5s-17.5,7.8-17.5,17.5v17.5C785.3,351.8,801,367.5,820.3,367.5z"/>
	<circle class="st0" cx="347.8" cy="385" r="17.5"/>
	<path class="st0" d="M592.8,437.5c9.7,0,17.5-7.8,17.5-17.5v-17.5V385c0-9.7-7.8-17.5-17.5-17.5s-17.5,7.8-17.5,17.5v17.5V420
		C575.3,429.7,583.2,437.5,592.8,437.5z"/>
	<path class="st0" d="M750.3,402.5h-17.5c-9.7,0-17.5,7.8-17.5,17.5c0,9.7,7.8,17.5,17.5,17.5h17.5h35h17.5
		c9.7,0,17.5-7.8,17.5-17.5c0-9.7-7.8-17.5-17.5-17.5h-17.5V385c0-9.7-7.8-17.5-17.5-17.5s-17.5,7.8-17.5,17.5V402.5z"/>
	<path class="st0" d="M942.8,402.5h17.5h17.5c9.7,0,17.5-7.8,17.5-17.5c0-9.7-7.8-17.5-17.5-17.5h-17.5h-17.5
		c-9.7,0-17.5,7.8-17.5,17.5C925.3,394.7,933.1,402.5,942.8,402.5z"/>
	<path class="st0" d="M435.3,402.5h-17.5c-9.7,0-17.5,7.8-17.5,17.5c0,9.7,7.8,17.5,17.5,17.5h17.5h17.5c9.7,0,17.5-7.8,17.5-17.5
		c0-9.7-7.8-17.5-17.5-17.5H435.3z"/>
	<circle class="st0" cx="662.8" cy="420" r="17.5"/>
	<circle class="st0" cx="872.8" cy="420" r="17.5"/>
	
		<ellipse transform="matrix(0.8112 -0.5847 0.5847 0.8112 -54.4083 671.481)" class="st0" cx="1012.8" cy="420" rx="17.5" ry="17.5"/>
	<circle class="st0" cx="382.8" cy="455" r="17.5"/>
	<path class="st0" d="M522.8,507.5c9.7,0,17.5-7.8,17.5-17.5v-17.5h17.5c9.7,0,17.5-7.8,17.5-17.5c0-9.7-7.8-17.5-17.5-17.5h-17.5
		c-19.3,0-35,15.7-35,35V490C505.3,499.7,513.2,507.5,522.8,507.5z"/>
	<circle class="st0" cx="627.8" cy="455" r="17.5"/>
	<circle class="st0" cx="837.8" cy="455" r="17.5"/>
	<path class="st0" d="M1030.3,507.5c0-19.3-15.7-35-35-35h0h-35c0-19.3-15.7-35-35-35h-17.5c-9.7,0-17.5,7.8-17.5,17.5
		c0,9.7,7.8,17.5,17.5,17.5h17.5v35c0,19.3,15.7,35,35,35v35v35h-35c0-19.3-15.7-35-35-35h-35c0-19.3-15.7-35-35-35v-35
		c0-19.3-15.7-35-35-35h-35h-35V455c0-9.7-7.8-17.5-17.5-17.5s-17.5,7.8-17.5,17.5v17.5h-17.5c-9.7,0-17.5,7.8-17.5,17.5
		c0,9.7,7.8,17.5,17.5,17.5h17.5c0,19.3,15.7,35,35,35v35h-35h-17.5c-9.7,0-17.5,7.8-17.5,17.5s7.8,17.5,17.5,17.5h17.5h35v35V665
		c0,9.7,7.8,17.5,17.5,17.5s17.5-7.8,17.5-17.5v-17.5v-35c19.3,0,35-15.7,35-35h35v35v35h-17.5c-9.7,0-17.5,7.8-17.5,17.5
		s7.8,17.5,17.5,17.5h17.5v35h-35h-35c-19.3,0-35,15.7-35,35v35h-17.5c-9.7,0-17.5,7.8-17.5,17.5s7.8,17.5,17.5,17.5h17.5v35
		c0,19.3,15.7,35,35,35h35h35v35V945c0,9.7,7.8,17.5,17.5,17.5s17.5-7.8,17.5-17.5v-17.5h35h17.5c9.7,0,17.5-7.8,17.5-17.5
		s-7.8-17.5-17.5-17.5h-17.5v-35c19.3,0,35-15.7,35-35v-35h35V805c0,9.7,7.8,17.5,17.5,17.5s17.5-7.8,17.5-17.5v-17.5h17.5h0
		c9.7,0,17.5-7.8,17.5-17.5s-7.8-17.5-17.5-17.5h-17.5h-35v-35v-35v-35c19.3,0,35-15.7,35-35v-35v-35v-35h0v35
		C1014.6,542.5,1030.3,526.8,1030.3,507.5z M785.3,542.5h-35v-35h35V542.5z M855.3,612.5h35c0,19.3,15.7,35,35,35v35v35h-35v-35
		c0-19.3-15.7-35-35-35V612.5z M820.3,857.5h-35h-35v-35v-35v-35h35h35h35v35v35v35H820.3z"/>
	<circle class="st0" cx="102.8" cy="525" r="17.5"/>
	<circle class="st0" cx="872.8" cy="525" r="17.5"/>
	<circle class="st0" cx="32.8" cy="560" r="17.5"/>
	<circle class="st0" cx="67.8" cy="630" r="17.5"/>
	<circle class="st0" cx="32.8" cy="665" r="17.5"/>
	<path class="st0" d="M242.8,682.5c9.7,0,17.5-7.8,17.5-17.5s-7.8-17.5-17.5-17.5h-17.5h-35v-35h35h35c0,19.3,15.7,35,35,35
		c0,19.3,15.7,35,35,35h17.5c9.7,0,17.5-7.8,17.5-17.5s-7.8-17.5-17.5-17.5h-17.5v-35h35h35c19.3,0,35-15.7,35-35
		c19.3,0,35-15.7,35-35h17.5c9.7,0,17.5-7.8,17.5-17.5s-7.8-17.5-17.5-17.5h-17.5h-35V490c0-9.7-7.8-17.5-17.5-17.5
		c-9.7,0-17.5,7.8-17.5,17.5v17.5h-17.5c-9.7,0-17.5,7.8-17.5,17.5s7.8,17.5,17.5,17.5h17.5v35h-35h-35v-35v-35h17.5
		c9.7,0,17.5-7.8,17.5-17.5c0-9.7-7.8-17.5-17.5-17.5h-17.5c0-19.3-15.7-35-35-35h-35h-35v-35h35c19.3,0,35-15.7,35-35v-35
		c0-19.3-15.7-35-35-35h-35h-17.5c-9.7,0-17.5,7.8-17.5,17.5c0,9.7,7.8,17.5,17.5,17.5h17.5h35v35h-35c-19.3,0-35,15.7-35,35v35h-35
		v-35v-35h17.5c9.7,0,17.5-7.8,17.5-17.5c0-9.7-7.8-17.5-17.5-17.5h-17.5c0-19.3-15.7-35-35-35h-17.5c-9.7,0-17.5,7.8-17.5,17.5
		c0,9.7,7.8,17.5,17.5,17.5h17.5v35h-35c0-19.3-15.7-35-35-35V315c0-9.7-7.8-17.5-17.5-17.5c-9.7,0-17.5,7.8-17.5,17.5v17.5v35
		c0,19.3,15.7,35,35,35h35v35H67.8c-9.7,0-17.5,7.8-17.5,17.5c0,9.7,7.8,17.5,17.5,17.5h17.5h35V490c0,9.7,7.8,17.5,17.5,17.5
		c9.7,0,17.5-7.8,17.5-17.5v-17.5h35V490c0,9.7,7.8,17.5,17.5,17.5c9.7,0,17.5-7.8,17.5-17.5v-17.5h35v35h-17.5
		c-9.7,0-17.5,7.8-17.5,17.5s7.8,17.5,17.5,17.5h17.5v35h-35c0-19.3-15.7-35-35-35s-35,15.7-35,35h-35h-17.5
		c-9.7,0-17.5,7.8-17.5,17.5s7.8,17.5,17.5,17.5h17.5v35v35c-19.3,0-35,15.7-35,35H67.8c-9.7,0-17.5,7.8-17.5,17.5
		s7.8,17.5,17.5,17.5h17.5c19.3,0,35-15.7,35-35h35c19.3,0,35-15.7,35-35h35H242.8z"/>
	<path class="st0" d="M627.8,612.5h-17.5v-35v-35v-35V490c0-9.7-7.8-17.5-17.5-17.5s-17.5,7.8-17.5,17.5v17.5h-17.5
		c-9.7,0-17.5,7.8-17.5,17.5s7.8,17.5,17.5,17.5h17.5v35h-35V560c0-9.7-7.8-17.5-17.5-17.5s-17.5,7.8-17.5,17.5v17.5v35v35h-35h-35
		h-17.5c-9.7,0-17.5,7.8-17.5,17.5s7.8,17.5,17.5,17.5h17.5c0,19.3,15.7,35,35,35c0,19.3,15.7,35,35,35c19.3,0,35-15.7,35-35v-35h35
		c19.3,0,35-15.7,35-35h17.5c9.7,0,17.5-7.8,17.5-17.5S637.5,612.5,627.8,612.5z M575.3,647.5h-35v-35h35V647.5z"/>
	<circle class="st0" cx="277.8" cy="700" r="17.5"/>
	<path class="st0" d="M697.8,717.5c9.7,0,17.5-7.8,17.5-17.5s-7.8-17.5-17.5-17.5h-17.5h-35c-19.3,0-35,15.7-35,35
		c-19.3,0-35,15.7-35,35c-19.3,0-35,15.7-35,35c-19.3,0-35,15.7-35,35h-35c-19.3,0-35,15.7-35,35V875c0,9.7,7.8,17.5,17.5,17.5
		c9.7,0,17.5-7.8,17.5-17.5v-17.5h35h35c19.3,0,35-15.7,35-35v-35h35V805c0,9.7,7.8,17.5,17.5,17.5s17.5-7.8,17.5-17.5v-17.5v-35
		c19.3,0,35-15.7,35-35H697.8z"/>
	<circle class="st0" cx="242.8" cy="735" r="17.5"/>
	<circle class="st0" cx="802.8" cy="805" r="17.5"/>
	<path class="st0" d="M645.3,840v17.5V875c0,9.7,7.8,17.5,17.5,17.5s17.5-7.8,17.5-17.5v-17.5V840c0-9.7-7.8-17.5-17.5-17.5
		S645.3,830.4,645.3,840z"/>
	<path class="st0" d="M1012.8,822.5c-9.7,0-17.5,7.8-17.5,17.5v17.5h0V875h0c0,9.7,7.8,17.5,17.5,17.5s17.5-7.8,17.5-17.5v-17.5V840
		C1030.3,830.4,1022.5,822.5,1012.8,822.5z"/>
	<circle class="st0" cx="592.8" cy="875" r="17.5"/>
	<circle class="st0" cx="942.8" cy="875" r="17.5"/>
	<circle class="st0" cx="977.8" cy="910" r="17.5"/>
	<path class="st0" d="M522.8,927.5h-17.5V910c0-9.7-7.8-17.5-17.5-17.5c-9.7,0-17.5,7.8-17.5,17.5v17.5c-19.3,0-35,15.7-35,35v35
		h-17.5c-9.7,0-17.5,7.8-17.5,17.5s7.8,17.5,17.5,17.5h17.5h35h17.5c9.7,0,17.5-7.8,17.5-17.5c0-9.7-7.8-17.5-17.5-17.5h-17.5v-35
		h35h17.5c9.7,0,17.5-7.8,17.5-17.5S532.5,927.5,522.8,927.5z"/>
	<circle class="st0" cx="942.8" cy="945" r="17.5"/>
	<polygon class="st0" points="1012.8,927.5 1012.8,927.5 1012.8,927.5 	"/>
	
		<ellipse transform="matrix(0.8112 -0.5847 0.5847 0.8112 -361.3813 770.579)" class="st0" cx="1012.8" cy="945" rx="17.5" ry="17.5"/>
	<path class="st0" d="M400.3,962.5v-35v-35v-35v-35v-35h35h17.5c9.7,0,17.5-7.8,17.5-17.5s-7.8-17.5-17.5-17.5h-17.5h-35
		c0-19.3-15.7-35-35-35c-19.3,0-35,15.7-35,35c-19.3,0-35,15.7-35,35v35c0,19.3,15.7,35,35,35c0,19.3,15.7,35,35,35v35h-35V910
		c0-9.7-7.8-17.5-17.5-17.5c-9.7,0-17.5,7.8-17.5,17.5v17.5c0,19.3,15.7,35,35,35h35V980c0,9.7,7.8,17.5,17.5,17.5
		c9.7,0,17.5-7.8,17.5-17.5V962.5z"/>
	<circle class="st0" cx="557.8" cy="980" r="17.5"/>
	<path class="st0" d="M732.8,962.5c-9.7,0-17.5,7.8-17.5,17.5v17.5h-35v-35c19.3,0,35-15.7,35-35V910c0-9.7-7.8-17.5-17.5-17.5
		s-17.5,7.8-17.5,17.5v17.5h-35c-19.3,0-35,15.7-35,35v35c0,19.3,15.7,35,35,35h35h35c19.3,0,35-15.7,35-35V980
		C750.3,970.4,742.5,962.5,732.8,962.5z"/>
	<path class="st0" d="M802.8,962.5c-9.7,0-17.5,7.8-17.5,17.5v17.5v17.5c0,9.7,7.8,17.5,17.5,17.5s17.5-7.8,17.5-17.5v-17.5V980
		C820.3,970.4,812.5,962.5,802.8,962.5z"/>
	<path class="st0" d="M890.3,962.5h-17.5c-9.7,0-17.5,7.8-17.5,17.5s7.8,17.5,17.5,17.5h17.5v17.5c0,9.7,7.8,17.5,17.5,17.5
		s17.5-7.8,17.5-17.5v-17.5C925.3,978.2,909.6,962.5,890.3,962.5z"/>
	<path class="st0" d="M977.8,962.5c-9.7,0-17.5,7.8-17.5,17.5v17.5v17.5c0,9.7,7.8,17.5,17.5,17.5s17.5-7.8,17.5-17.5v-17.5V980
		C995.3,970.4,987.5,962.5,977.8,962.5z"/>
	<path class="st0" d="M347.8,997.5h-17.5h-17.5c-9.7,0-17.5,7.8-17.5,17.5s7.8,17.5,17.5,17.5h17.5h17.5c9.7,0,17.5-7.8,17.5-17.5
		C365.3,1005.4,357.5,997.5,347.8,997.5z"/>
</g>
<g>
	<rect x="52.1" y="54.3" class="st1" width="171.5" height="171.5"/>
	<path class="st0" d="M223.6,17.5H15.3v245h245v-245H223.6z M223.6,225.8H52.1V54.3h171.5V225.8z"/>
</g>
<g>
	<rect x="822.1" y="54.3" class="st1" width="171.5" height="171.5"/>
	<path class="st0" d="M993.6,17.5H785.3v245h245v-245H993.6L993.6,17.5z M993.6,225.8H822.1V54.3h171.5V225.8z"/>
</g>
<g>
	<rect x="52.1" y="824.3" class="st1" width="171.5" height="171.5"/>
	<path class="st0" d="M223.6,787.5H15.3v245h245v-245H223.6z M223.6,995.8H52.1V824.3h171.5V995.8z"/>
</g>
<rect x="85.3" y="87.5" class="st0" width="105" height="105"/>
<rect x="855.3" y="87.5" class="st0" width="105" height="105"/>
<rect x="85.3" y="857.5" class="st0" width="105" height="105"/>
</svg>
